<?xml version="1.0" encoding="UTF-8" standalone="no"?>
<svg
   xmlns:dc="http://purl.org/dc/elements/1.1/"
   xmlns:cc="http://creativecommons.org/ns#"
   xmlns:rdf="http://www.w3.org/1999/02/22-rdf-syntax-ns#"
   xmlns:svg="http://www.w3.org/2000/svg"
   xmlns="http://www.w3.org/2000/svg"
   xmlns:sodipodi="http://sodipodi.sourceforge.net/DTD/sodipodi-0.dtd"
   xmlns:inkscape="http://www.inkscape.org/namespaces/inkscape"
   version="1.1"
   viewBox="0 0 507.34909 103.8504"
   stroke-miterlimit="10"
   id="svg60"
   sodipodi:docname="foreign-key.svg"
   width="507.34909"
   height="103.8504"
   style="fill:none;stroke:none;stroke-linecap:square;stroke-miterlimit:10"
   inkscape:version="0.92.3 (2405546, 2018-03-11)">
  <metadata
     id="metadata66">
    <rdf:RDF>
      <cc:Work
         rdf:about="">
        <dc:format>image/svg+xml</dc:format>
        <dc:type
           rdf:resource="http://purl.org/dc/dcmitype/StillImage" />
        <dc:title></dc:title>
      </cc:Work>
    </rdf:RDF>
  </metadata>
  <defs
     id="defs64" />
  <sodipodi:namedview
     pagecolor="#ffffff"
     bordercolor="#666666"
     borderopacity="1"
     objecttolerance="10"
     gridtolerance="10"
     guidetolerance="10"
     inkscape:pageopacity="0"
     inkscape:pageshadow="2"
     inkscape:window-width="1041"
     inkscape:window-height="730"
     id="namedview62"
     showgrid="false"
     inkscape:zoom="1.02"
     inkscape:cx="285.699"
     inkscape:cy="54.92782"
     inkscape:window-x="45"
     inkscape:window-y="0"
     inkscape:window-maximized="0"
     inkscape:current-layer="g58" />
  <clipPath
     id="g3a86539f73_0_1.0">
    <path
       d="M 0,0 H 960 V 540 H 0 Z"
       id="path2"
       inkscape:connector-curvature="0"
       style="clip-rule:nonzero" />
  </clipPath>
  <g
     clip-path="url(#g3a86539f73_0_1.0)"
     id="g58"
     transform="translate(-194.301,-221.07742)">
    <defs
       id="defs10">
      <linearGradient
         id="g3a86539f73_0_1.1"
         gradientUnits="userSpaceOnUse"
         gradientTransform="scale(32.567736)"
         spreadMethod="pad"
         x1="37.767441"
         y1="8.2905655"
         x2="14.738785"
         y2="-14.738513">
        <stop
           offset="0.0"
           stop-color="#dfe9fb"
           id="stop5" />
        <stop
           offset="1.0"
           stop-color="#6e9be7"
           id="stop7" />
      </linearGradient>
    </defs>
    <path
       d="M 32.72441,46.721786 H 927.27556 V 106.84777 H 32.72441 Z"
       id="path14"
       inkscape:connector-curvature="0"
       style="fill:#000000;fill-opacity:0;fill-rule:evenodd" />
    <path
       d="m 32.72441,120.25722 h 894.55115 v 358.6772 H 32.72441 Z"
       id="path18"
       inkscape:connector-curvature="0"
       style="fill:#000000;fill-opacity:0;fill-rule:evenodd" />
    <path
       d="m 195.801,222.57742 h 193.13385 v 100.8504 H 195.801 Z"
       id="path30"
       inkscape:connector-curvature="0"
       style="fill:#eeeeee;fill-rule:evenodd" />
    <path
       d="m 195.801,222.57742 h 193.13385 v 100.8504 H 195.801 Z"
       id="path32"
       inkscape:connector-curvature="0"
       style="fill-rule:evenodd;stroke:#434343;stroke-width:3;stroke-linecap:butt;stroke-linejoin:round" />
    <path
       d="m 214.50413,250.05493 2.07812,0.26563 q -0.34375,2.15625 -1.75,3.375 -1.39062,1.20312 -3.4375,1.20312 -2.54687,0 -4.10937,-1.67187 -1.54688,-1.67188 -1.54688,-4.78125 0,-2.01563 0.67188,-3.53125 0.67187,-1.51563 2.03125,-2.26563 1.35937,-0.76562 2.96875,-0.76562 2.03125,0 3.3125,1.03125 1.29687,1.03125 1.65625,2.90625 l -2.04688,0.32812 q -0.29687,-1.26562 -1.04687,-1.89062 -0.73438,-0.64063 -1.79688,-0.64063 -1.59375,0 -2.59375,1.15625 -0.98437,1.14063 -0.98437,3.60938 0,2.5 0.95312,3.64062 0.96875,1.14063 2.51563,1.14063 1.23437,0 2.0625,-0.76563 0.84375,-0.76562 1.0625,-2.34375 z m 12.03125,4.5625 v -1.82812 q -1.45313,2.10937 -3.9375,2.10937 -1.10938,0 -2.0625,-0.42187 -0.95313,-0.42188 -1.42188,-1.0625 -0.45312,-0.64063 -0.64062,-1.5625 -0.14063,-0.625 -0.14063,-1.96875 v -7.71875 h 2.10938 v 6.90625 q 0,1.65625 0.14062,2.23437 0.1875,0.82813 0.82813,1.3125 0.65625,0.46875 1.60937,0.46875 0.9375,0 1.76563,-0.48437 0.84375,-0.5 1.1875,-1.32813 0.34375,-0.84375 0.34375,-2.4375 v -6.67187 h 2.10937 v 12.45312 z m 4.34766,-3.71875 2.09375,-0.32812 q 0.17187,1.25 0.96875,1.92187 0.8125,0.67188 2.25,0.67188 1.45312,0 2.15625,-0.59375 0.70312,-0.59375 0.70312,-1.39063 0,-0.71875 -0.625,-1.125 -0.42187,-0.28125 -2.15625,-0.71875 -2.3125,-0.57812 -3.21875,-1 -0.89062,-0.4375 -1.35937,-1.1875 -0.45313,-0.76562 -0.45313,-1.67187 0,-0.82813 0.375,-1.53125 0.39063,-0.71875 1.04688,-1.1875 0.48437,-0.35938 1.32812,-0.60938 0.85938,-0.26562 1.82813,-0.26562 1.46875,0 2.57812,0.42187 1.10938,0.42188 1.625,1.15625 0.53125,0.71875 0.73438,1.92188 l -2.0625,0.28125 q -0.14063,-0.96875 -0.8125,-1.5 -0.67188,-0.54688 -1.90625,-0.54688 -1.45313,0 -2.07813,0.48438 -0.625,0.48437 -0.625,1.125 0,0.40625 0.26563,0.73437 0.25,0.34375 0.8125,0.5625 0.3125,0.125 1.85937,0.54688 2.23438,0.59375 3.10938,0.98437 0.89062,0.375 1.39062,1.10938 0.51563,0.71875 0.51563,1.79687 0,1.04688 -0.625,1.98438 -0.60938,0.9375 -1.76563,1.45312 -1.15625,0.5 -2.625,0.5 -2.42187,0 -3.70312,-1 -1.26563,-1.01562 -1.625,-3 z m 17.45312,1.82813 0.3125,1.85937 q -0.89062,0.20313 -1.59375,0.20313 -1.15625,0 -1.79687,-0.35938 -0.625,-0.375 -0.89063,-0.96875 -0.25,-0.59375 -0.25,-2.48437 v -7.17188 h -1.54687 v -1.64062 h 1.54687 v -3.07813 l 2.09375,-1.26562 v 4.34375 h 2.125 v 1.64062 h -2.125 v 7.28125 q 0,0.90625 0.10938,1.17188 0.125,0.25 0.375,0.40625 0.25,0.14062 0.71875,0.14062 0.34375,0 0.92187,-0.0781 z m 1.27734,-4.32813 q 0,-3.46875 1.92188,-5.125 1.60937,-1.39062 3.92187,-1.39062 2.5625,0 4.1875,1.6875 1.625,1.6875 1.625,4.64062 0,2.40625 -0.71875,3.78125 -0.71875,1.375 -2.09375,2.14063 -1.375,0.76562 -3,0.76562 -2.625,0 -4.23437,-1.67187 -1.60938,-1.6875 -1.60938,-4.82813 z m 2.17188,0 q 0,2.39063 1.03125,3.57813 1.04687,1.1875 2.64062,1.1875 1.5625,0 2.60938,-1.1875 1.04687,-1.20313 1.04687,-3.65625 0,-2.3125 -1.0625,-3.5 -1.04687,-1.1875 -2.59375,-1.1875 -1.59375,0 -2.64062,1.1875 -1.03125,1.1875 -1.03125,3.57812 z m 11.95703,6.21875 v -12.45312 h 1.89063 v 1.75 q 0.59375,-0.90625 1.5625,-1.46875 0.96875,-0.5625 2.21875,-0.5625 1.375,0 2.25,0.57812 0.89062,0.57813 1.26562,1.60938 1.46875,-2.1875 3.84375,-2.1875 1.84375,0 2.84375,1.03125 1,1.03125 1,3.15625 v 8.54687 h -2.10937 v -7.84375 q 0,-1.26562 -0.20313,-1.8125 -0.20312,-0.5625 -0.75,-0.90625 -0.53125,-0.34375 -1.25,-0.34375 -1.3125,0 -2.1875,0.875 -0.85937,0.875 -0.85937,2.79688 v 7.23437 h -2.10938 v -8.09375 q 0,-1.40625 -0.51562,-2.10937 -0.51563,-0.70313 -1.6875,-0.70313 -0.89063,0 -1.65625,0.46875 -0.75,0.46875 -1.09375,1.375 -0.34375,0.90625 -0.34375,2.60938 v 6.45312 z m 28.52344,-4.01562 2.17187,0.28125 q -0.51562,1.90625 -1.90625,2.96875 -1.39062,1.04687 -3.5625,1.04687 -2.73437,0 -4.34375,-1.67187 -1.59375,-1.6875 -1.59375,-4.73438 0,-3.14062 1.60938,-4.875 1.625,-1.73437 4.20312,-1.73437 2.5,0 4.07813,1.70312 1.59375,1.70313 1.59375,4.78125 0,0.1875 -0.0156,0.5625 H 285.219 q 0.10938,2.04688 1.15625,3.14063 1.04688,1.09375 2.60938,1.09375 1.15625,0 1.96875,-0.60938 0.82812,-0.60937 1.3125,-1.95312 z m -6.9375,-3.40625 h 6.95312 q -0.14062,-1.5625 -0.79687,-2.35938 -1,-1.21875 -2.60938,-1.21875 -1.45312,0 -2.45312,0.98438 -0.98438,0.96875 -1.09375,2.59375 z m 11.73828,7.42187 v -12.45312 h 1.89062 v 1.89062 q 0.73438,-1.32812 1.34375,-1.75 0.625,-0.42187 1.35938,-0.42187 1.0625,0 2.17187,0.6875 l -0.73437,1.95312 q -0.76563,-0.45312 -1.54688,-0.45312 -0.6875,0 -1.25,0.42187 -0.54687,0.40625 -0.78125,1.14063 -0.34375,1.125 -0.34375,2.46875 v 6.51562 z m 7.16406,-3.71875 2.09375,-0.32812 q 0.17188,1.25 0.96875,1.92187 0.8125,0.67188 2.25,0.67188 1.45313,0 2.15625,-0.59375 0.70313,-0.59375 0.70313,-1.39063 0,-0.71875 -0.625,-1.125 -0.42188,-0.28125 -2.15625,-0.71875 -2.3125,-0.57812 -3.21875,-1 -0.89063,-0.4375 -1.35938,-1.1875 -0.45312,-0.76562 -0.45312,-1.67187 0,-0.82813 0.375,-1.53125 0.39062,-0.71875 1.04687,-1.1875 0.48438,-0.35938 1.32813,-0.60938 0.85937,-0.26562 1.82812,-0.26562 1.46875,0 2.57813,0.42187 1.10937,0.42188 1.625,1.15625 0.53125,0.71875 0.73437,1.92188 l -2.0625,0.28125 q -0.14062,-0.96875 -0.8125,-1.5 -0.67187,-0.54688 -1.90625,-0.54688 -1.45312,0 -2.07812,0.48438 -0.625,0.48437 -0.625,1.125 0,0.40625 0.26562,0.73437 0.25,0.34375 0.8125,0.5625 0.3125,0.125 1.85938,0.54688 2.23437,0.59375 3.10937,0.98437 0.89063,0.375 1.39063,1.10938 0.51562,0.71875 0.51562,1.79687 0,1.04688 -0.625,1.98438 -0.60937,0.9375 -1.76562,1.45312 -1.15625,0.5 -2.625,0.5 -2.42188,0 -3.70313,-1 -1.26562,-1.01562 -1.625,-3 z"
       id="path34"
       inkscape:connector-curvature="0"
       style="fill:#000000;fill-rule:nonzero" />
    <path
       d="m 507.01624,222.57742 h 193.13385 v 100.8504 H 507.01624 Z"
       id="path36"
       inkscape:connector-curvature="0"
       style="fill:#eeeeee;fill-rule:evenodd" />
    <path
       d="m 507.01624,222.57742 h 193.13385 v 100.8504 H 507.01624 Z"
       id="path38"
       inkscape:connector-curvature="0"
       style="fill-rule:evenodd;stroke:#434343;stroke-width:3;stroke-linecap:butt;stroke-linejoin:round" />
    <path
       d="m 516.81312,248.39868 q 0,-3.46875 1.92187,-5.125 1.60938,-1.39062 3.92188,-1.39062 2.5625,0 4.1875,1.6875 1.625,1.6875 1.625,4.64062 0,2.40625 -0.71875,3.78125 -0.71875,1.375 -2.09375,2.14063 -1.375,0.76562 -3,0.76562 -2.625,0 -4.23438,-1.67187 -1.60937,-1.6875 -1.60937,-4.82813 z m 2.17187,0 q 0,2.39063 1.03125,3.57813 1.04688,1.1875 2.64063,1.1875 1.5625,0 2.60937,-1.1875 1.04688,-1.20313 1.04688,-3.65625 0,-2.3125 -1.0625,-3.5 -1.04688,-1.1875 -2.59375,-1.1875 -1.59375,0 -2.64063,1.1875 -1.03125,1.1875 -1.03125,3.57812 z m 11.94141,6.21875 v -12.45312 h 1.89063 v 1.89062 q 0.73437,-1.32812 1.34375,-1.75 0.625,-0.42187 1.35937,-0.42187 1.0625,0 2.17188,0.6875 l -0.73438,1.95312 q -0.76562,-0.45312 -1.54687,-0.45312 -0.6875,0 -1.25,0.42187 -0.54688,0.40625 -0.78125,1.14063 -0.34375,1.125 -0.34375,2.46875 v 6.51562 z m 16.08594,0 v -1.57812 q -1.1875,1.85937 -3.48438,1.85937 -1.48437,0 -2.73437,-0.8125 -1.25,-0.82812 -1.9375,-2.29687 -0.67188,-1.46875 -0.67188,-3.39063 0,-1.85937 0.60938,-3.375 0.625,-1.51562 1.85937,-2.32812 1.25,-0.8125 2.78125,-0.8125 1.125,0 2,0.48437 0.89063,0.46875 1.4375,1.23438 v -6.17188 h 2.09375 v 17.1875 z m -6.67188,-6.21875 q 0,2.39063 1,3.57813 1.01563,1.1875 2.39063,1.1875 1.39062,0 2.34375,-1.125 0.96875,-1.14063 0.96875,-3.45313 0,-2.5625 -0.98438,-3.75 -0.98437,-1.20312 -2.42187,-1.20312 -1.40625,0 -2.35938,1.15625 -0.9375,1.14062 -0.9375,3.60937 z m 20.47266,2.20313 2.17187,0.28125 q -0.51562,1.90625 -1.90625,2.96875 -1.39062,1.04687 -3.5625,1.04687 -2.73437,0 -4.34375,-1.67187 -1.59375,-1.6875 -1.59375,-4.73438 0,-3.14062 1.60938,-4.875 1.625,-1.73437 4.20312,-1.73437 2.5,0 4.07813,1.70312 1.59375,1.70313 1.59375,4.78125 0,0.1875 -0.0156,0.5625 h -9.28125 q 0.10938,2.04688 1.15625,3.14063 1.04688,1.09375 2.60938,1.09375 1.15625,0 1.96875,-0.60938 0.82812,-0.60937 1.3125,-1.95312 z m -6.9375,-3.40625 h 6.95312 q -0.14062,-1.5625 -0.79687,-2.35938 -1,-1.21875 -2.60938,-1.21875 -1.45312,0 -2.45312,0.98438 -0.98438,0.96875 -1.09375,2.59375 z m 11.73828,7.42187 v -12.45312 h 1.89063 v 1.89062 q 0.73437,-1.32812 1.34375,-1.75 0.625,-0.42187 1.35937,-0.42187 1.0625,0 2.17188,0.6875 l -0.73438,1.95312 q -0.76562,-0.45312 -1.54687,-0.45312 -0.6875,0 -1.25,0.42187 -0.54688,0.40625 -0.78125,1.14063 -0.34375,1.125 -0.34375,2.46875 v 6.51562 z m 7.16406,-3.71875 2.09375,-0.32812 q 0.17188,1.25 0.96875,1.92187 0.8125,0.67188 2.25,0.67188 1.45313,0 2.15625,-0.59375 0.70313,-0.59375 0.70313,-1.39063 0,-0.71875 -0.625,-1.125 -0.42188,-0.28125 -2.15625,-0.71875 -2.3125,-0.57812 -3.21875,-1 -0.89063,-0.4375 -1.35938,-1.1875 -0.45312,-0.76562 -0.45312,-1.67187 0,-0.82813 0.375,-1.53125 0.39062,-0.71875 1.04687,-1.1875 0.48438,-0.35938 1.32813,-0.60938 0.85937,-0.26562 1.82812,-0.26562 1.46875,0 2.57813,0.42187 1.10937,0.42188 1.625,1.15625 0.53125,0.71875 0.73437,1.92188 l -2.0625,0.28125 q -0.14062,-0.96875 -0.8125,-1.5 -0.67187,-0.54688 -1.90625,-0.54688 -1.45312,0 -2.07812,0.48438 -0.625,0.48437 -0.625,1.125 0,0.40625 0.26562,0.73437 0.25,0.34375 0.8125,0.5625 0.3125,0.125 1.85938,0.54688 2.23437,0.59375 3.10937,0.98437 0.89063,0.375 1.39063,1.10938 0.51562,0.71875 0.51562,1.79687 0,1.04688 -0.625,1.98438 -0.60937,0.9375 -1.76562,1.45312 -1.15625,0.5 -2.625,0.5 -2.42188,0 -3.70313,-1 -1.26562,-1.01562 -1.625,-3 z"
       id="path40"
       inkscape:connector-curvature="0"
       style="fill:#000000;fill-rule:nonzero" />
    <path
       d="m 451.64616,274.23096 55.37009,-1.22833"
       id="path42"
       inkscape:connector-curvature="0"
       style="fill:#000000;fill-opacity:0;fill-rule:evenodd" />
    <path
       d="m 451.64616,274.23096 55.37009,-1.22833"
       id="path44"
       inkscape:connector-curvature="0"
       style="fill-rule:evenodd;stroke:#434343;stroke-width:3;stroke-linecap:butt;stroke-linejoin:round" />
    <path
       d="m 506.40992,251.7454 -22.99213,21.51183"
       id="path46"
       inkscape:connector-curvature="0"
       style="fill:#000000;fill-opacity:0;fill-rule:evenodd" />
    <path
       d="m 506.40992,251.7454 -22.99213,21.51183"
       id="path48"
       inkscape:connector-curvature="0"
       style="fill-rule:evenodd;stroke:#595959;stroke-width:3;stroke-linecap:butt;stroke-linejoin:round" />
    <path
       d="M 506.40992,294.51443 483.41779,273.00262"
       id="path50"
       inkscape:connector-curvature="0"
       style="fill:#000000;fill-opacity:0;fill-rule:evenodd" />
    <path
       d="M 506.40992,294.51443 483.41779,273.00262"
       id="path52"
       inkscape:connector-curvature="0"
       style="fill-rule:evenodd;stroke:#595959;stroke-width:3;stroke-linecap:butt;stroke-linejoin:round" />
    <path
       d="m 388.93486,273.00262 62.70868,1.22833"
       id="path54"
       inkscape:connector-curvature="0"
       style="fill:#000000;fill-opacity:0;fill-rule:evenodd" />
    <path
       d="m 388.93486,273.00262 62.70868,1.22833"
       id="path56"
       inkscape:connector-curvature="0"
       style="fill-rule:evenodd;stroke:#434343;stroke-width:3;stroke-linecap:butt;stroke-linejoin:round;stroke-dasharray:12, 9" />
  </g>
</svg>
