<?xml version="1.0" encoding="UTF-8" standalone="no"?>
<svg
   xmlns:dc="http://purl.org/dc/elements/1.1/"
   xmlns:cc="http://creativecommons.org/ns#"
   xmlns:rdf="http://www.w3.org/1999/02/22-rdf-syntax-ns#"
   xmlns:svg="http://www.w3.org/2000/svg"
   xmlns="http://www.w3.org/2000/svg"
   xmlns:sodipodi="http://sodipodi.sourceforge.net/DTD/sodipodi-0.dtd"
   xmlns:inkscape="http://www.inkscape.org/namespaces/inkscape"
   version="1.1"
   viewBox="0 0 894.55115 358.67715"
   stroke-miterlimit="10"
   id="svg130"
   sodipodi:docname="indexes.svg"
   width="894.55115"
   height="358.67715"
   style="fill:none;stroke:none;stroke-linecap:square;stroke-miterlimit:10"
   inkscape:version="0.92.3 (2405546, 2018-03-11)">
  <metadata
     id="metadata136">
    <rdf:RDF>
      <cc:Work
         rdf:about="">
        <dc:format>image/svg+xml</dc:format>
        <dc:type
           rdf:resource="http://purl.org/dc/dcmitype/StillImage" />
        <dc:title></dc:title>
      </cc:Work>
    </rdf:RDF>
  </metadata>
  <defs
     id="defs134" />
  <sodipodi:namedview
     pagecolor="#ffffff"
     bordercolor="#666666"
     borderopacity="1"
     objecttolerance="10"
     gridtolerance="10"
     guidetolerance="10"
     inkscape:pageopacity="0"
     inkscape:pageshadow="2"
     inkscape:window-width="1163"
     inkscape:window-height="715"
     id="namedview132"
     showgrid="false"
     inkscape:zoom="1.0076272"
     inkscape:cx="433.55853"
     inkscape:cy="222.95339"
     inkscape:window-x="45"
     inkscape:window-y="0"
     inkscape:window-maximized="0"
     inkscape:current-layer="g128" />
  <clipPath
     id="g3dc6dbd4b4_0_0.0">
    <path
       d="M 0,0 H 960 V 540 H 0 Z"
       id="path2"
       inkscape:connector-curvature="0"
       style="clip-rule:nonzero" />
  </clipPath>
  <g
     clip-path="url(#g3dc6dbd4b4_0_0.0)"
     id="g128"
     transform="translate(-32.72441,-120.99475)">
    <defs
       id="defs10">
      <linearGradient
         id="g3dc6dbd4b4_0_0.1"
         gradientUnits="userSpaceOnUse"
         gradientTransform="scale(32.567736)"
         spreadMethod="pad"
         x1="37.767441"
         y1="8.2905655"
         x2="14.738785"
         y2="-14.738513">
        <stop
           offset="0.0"
           stop-color="#dfe9fb"
           id="stop5" />
        <stop
           offset="1.0"
           stop-color="#6e9be7"
           id="stop7" />
      </linearGradient>
    </defs>
    <path
       d="M 32.72441,46.721786 H 927.27556 V 106.84777 H 32.72441 Z"
       id="path14"
       inkscape:connector-curvature="0"
       style="fill:#000000;fill-opacity:0;fill-rule:evenodd" />
    <path
       d="m 32.72441,120.99475 h 419.937 V 479.6719 h -419.937 z"
       id="path18"
       inkscape:connector-curvature="0"
       style="fill:#000000;fill-opacity:0;fill-rule:evenodd" />
    <path
       d="m 59.22441,137.8085 h 3.03125 v 13.23437 q 0,3.45313 -0.78125,5.48438 -0.78125,2.03125 -2.828125,3.3125 -2.03125,1.26562 -5.34375,1.26562 -3.21875,0 -5.265625,-1.10937 -2.046875,-1.10938 -2.921875,-3.20313 -0.875,-2.10937 -0.875,-5.75 V 137.8085 h 3.03125 v 13.21875 q 0,2.98437 0.546875,4.40625 0.5625,1.40625 1.90625,2.17187 1.359375,0.76563 3.3125,0.76563 3.34375,0 4.765625,-1.51563 1.421875,-1.51562 1.421875,-5.82812 z m 7.71875,22.90625 V 144.121 h 2.53125 v 2.35937 q 1.828125,-2.73437 5.28125,-2.73437 1.5,0 2.75,0.54687 1.265625,0.53125 1.890625,1.40625 0.625,0.875 0.875,2.07813 0.15625,0.78125 0.15625,2.73437 v 10.20313 h -2.8125 V 150.621 q 0,-1.71875 -0.328125,-2.5625 -0.328125,-0.85938 -1.171875,-1.35938 -0.828125,-0.51562 -1.953125,-0.51562 -1.796875,0 -3.109375,1.14062 -1.296875,1.14063 -1.296875,4.32813 v 9.0625 z m 17.8125,-19.67188 v -3.23437 h 2.8125 v 3.23437 z m 0,19.67188 V 144.121 h 2.8125 v 16.59375 z m 17.85938,0 V 158.621 q -1.57813,2.46875 -4.64063,2.46875 -1.984375,0 -3.65625,-1.09375 -1.65625,-1.09375 -2.578125,-3.04688 -0.90625,-1.96875 -0.90625,-4.51562 0,-2.48438 0.828125,-4.5 0.828125,-2.03125 2.484375,-3.10938 1.65625,-1.07812 3.703125,-1.07812 1.5,0 2.67188,0.64062 1.17187,0.625 1.90625,1.64063 v -8.21875 h 2.79687 v 22.90625 z m -8.89063,-8.28125 q 0,3.1875 1.34375,4.76562 1.34375,1.57813 3.171875,1.57813 1.843755,0 3.125005,-1.5 1.29687,-1.51563 1.29687,-4.60938 0,-3.40625 -1.3125,-5 -1.3125,-1.59375 -3.234375,-1.59375 -1.875,0 -3.140625,1.53125 -1.25,1.53125 -1.25,4.82813 z m 27.28125,2.9375 2.90625,0.35937 q -0.6875,2.54688 -2.54687,3.95313 -1.85938,1.40625 -4.75,1.40625 -3.64063,0 -5.78125,-2.23438 -2.125,-2.25 -2.125,-6.29687 0,-4.1875 2.15625,-6.5 2.15625,-2.3125 5.59375,-2.3125 3.32812,0 5.4375,2.26562 2.10937,2.26563 2.10937,6.375 0,0.25 -0.0156,0.75 h -12.375 q 0.15625,2.73438 1.54687,4.1875 1.39063,1.45313 3.46875,1.45313 1.54688,0 2.64063,-0.8125 1.09375,-0.8125 1.73437,-2.59375 z m -9.23437,-4.54688 h 9.26562 q -0.1875,-2.09375 -1.0625,-3.14062 -1.34375,-1.625 -3.48437,-1.625 -1.9375,0 -3.26563,1.29687 -1.3125,1.29688 -1.45312,3.46875 z m 13.79687,9.89063 6.0625,-8.625 -5.60937,-7.96875 h 3.51562 l 2.54687,3.89062 q 0.71875,1.10938 1.15625,1.85938 0.6875,-1.03125 1.26563,-1.82813 l 2.79687,-3.92187 h 3.35938 l -5.73438,7.8125 6.17188,8.78125 h -3.45313 l -3.40625,-5.15625 -0.90625,-1.39063 -4.35937,6.54688 z m 29.23437,-5.34375 2.90625,0.35937 q -0.6875,2.54688 -2.54687,3.95313 -1.85938,1.40625 -4.75,1.40625 -3.64063,0 -5.78125,-2.23438 -2.125,-2.25 -2.125,-6.29687 0,-4.1875 2.15625,-6.5 2.15625,-2.3125 5.59375,-2.3125 3.32812,0 5.4375,2.26562 2.10937,2.26563 2.10937,6.375 0,0.25 -0.0156,0.75 h -12.375 q 0.15625,2.73438 1.54687,4.1875 1.39063,1.45313 3.46875,1.45313 1.54688,0 2.64063,-0.8125 1.09375,-0.8125 1.73437,-2.59375 z m -9.23437,-4.54688 h 9.26562 q -0.1875,-2.09375 -1.0625,-3.14062 -1.34375,-1.625 -3.48437,-1.625 -1.9375,0 -3.26563,1.29687 -1.3125,1.29688 -1.45312,3.46875 z m 26.4375,9.89063 V 158.621 q -1.57813,2.46875 -4.64063,2.46875 -1.98437,0 -3.65625,-1.09375 -1.65625,-1.09375 -2.57812,-3.04688 -0.90625,-1.96875 -0.90625,-4.51562 0,-2.48438 0.82812,-4.5 0.82813,-2.03125 2.48438,-3.10938 1.65625,-1.07812 3.70312,-1.07812 1.5,0 2.67188,0.64062 1.17187,0.625 1.90625,1.64063 v -8.21875 h 2.79687 v 22.90625 z m -8.89063,-8.28125 q 0,3.1875 1.34375,4.76562 1.34375,1.57813 3.17188,1.57813 1.84375,0 3.125,-1.5 1.29687,-1.51563 1.29687,-4.60938 0,-3.40625 -1.3125,-5 -1.3125,-1.59375 -3.23437,-1.59375 -1.875,0 -3.14063,1.53125 -1.25,1.53125 -1.25,4.82813 z m 42.53125,5.82812 q 2.10938,1.45313 3.89063,2.125 l -0.89063,2.10938 q -2.46875,-0.89063 -4.92187,-2.8125 -2.54688,1.42187 -5.625,1.42187 -3.10938,0 -5.64063,-1.5 -2.53125,-1.5 -3.90625,-4.21875 -1.35937,-2.71875 -1.35937,-6.125 0,-3.39062 1.375,-6.17187 1.375,-2.78125 3.90625,-4.23438 2.54687,-1.45312 5.6875,-1.45312 3.17187,0 5.71875,1.51562 2.54687,1.5 3.875,4.21875 1.34375,2.70313 1.34375,6.10938 0,2.82812 -0.85938,5.09375 -0.85937,2.25 -2.59375,3.92187 z m -6.67187,-3.875 q 2.625,0.73438 4.32812,2.1875 2.67188,-2.4375 2.67188,-7.32812 0,-2.78125 -0.95313,-4.85938 -0.9375,-2.07812 -2.76562,-3.21875 -1.8125,-1.15625 -4.07813,-1.15625 -3.39062,0 -5.625,2.32813 -2.23437,2.3125 -2.23437,6.92187 0,4.46875 2.20312,6.85938 2.21875,2.39062 5.65625,2.39062 1.625,0 3.0625,-0.60937 -1.42187,-0.92188 -3,-1.3125 z m 24.71875,6.32813 v -2.4375 q -1.9375,2.8125 -5.26563,2.8125 -1.46875,0 -2.75,-0.5625 -1.26562,-0.5625 -1.89062,-1.40625 -0.60938,-0.85938 -0.85938,-2.09375 -0.17187,-0.82813 -0.17187,-2.625 V 144.121 h 2.8125 v 9.20312 q 0,2.20313 0.17187,2.96875 0.26563,1.10938 1.125,1.75 0.85938,0.625 2.125,0.625 1.26563,0 2.375,-0.64062 1.10938,-0.65625 1.5625,-1.76563 0.46875,-1.125 0.46875,-3.25 V 144.121 h 2.8125 v 16.59375 z m 18.28125,-5.34375 2.90625,0.35937 q -0.6875,2.54688 -2.54688,3.95313 -1.85937,1.40625 -4.75,1.40625 -3.64062,0 -5.78125,-2.23438 -2.125,-2.25 -2.125,-6.29687 0,-4.1875 2.15625,-6.5 2.15625,-2.3125 5.59375,-2.3125 3.32813,0 5.4375,2.26562 2.10938,2.26563 2.10938,6.375 0,0.25 -0.0156,0.75 h -12.375 q 0.15625,2.73438 1.54688,4.1875 1.39062,1.45313 3.46875,1.45313 1.54687,0 2.64062,-0.8125 1.09375,-0.8125 1.73438,-2.59375 z m -9.23438,-4.54688 h 9.26563 q -0.1875,-2.09375 -1.0625,-3.14062 -1.34375,-1.625 -3.48438,-1.625 -1.9375,0 -3.26562,1.29687 -1.3125,1.29688 -1.45313,3.46875 z m 15.64063,9.89063 V 144.121 h 2.53125 v 2.51562 q 0.96875,-1.76562 1.78125,-2.32812 0.82812,-0.5625 1.8125,-0.5625 1.42187,0 2.89061,0.90625 l -0.96875,2.60937 q -1.03124,-0.60937 -2.06249,-0.60937 -0.92187,0 -1.65625,0.5625 -0.73437,0.54687 -1.04687,1.53125 -0.46875,1.5 -0.46875,3.28125 v 8.6875 z m 10.56249,6.39062 -0.3125,-2.64062 q 0.92187,0.25 1.60937,0.25 0.9375,0 1.5,-0.3125 0.5625,-0.3125 0.92188,-0.875 0.26562,-0.42188 0.85937,-2.09375 0.0781,-0.23438 0.25,-0.6875 l -6.29687,-16.625 h 3.03125 l 3.45312,9.60937 q 0.67188,1.82813 1.20313,3.84375 0.48437,-1.9375 1.15625,-3.78125 l 3.54687,-9.67187 h 2.8125 l -6.3125,16.875 q -1.01562,2.73437 -1.57812,3.76562 -0.75,1.39063 -1.71875,2.03125 -0.96875,0.65625 -2.3125,0.65625 -0.8125,0 -1.8125,-0.34375 z M 275.8494,147.32412 V 144.121 h 3.20312 v 3.20312 z m 0,13.39063 v -3.20313 h 3.20312 v 3.20313 z"
       id="path20"
       inkscape:connector-curvature="0"
       style="fill:#20124d;fill-rule:nonzero" />
    <path
       d="m 43.16191,213.35538 2.859375,-0.25 q 0.203125,1.71875 0.9375,2.82812 0.75,1.09375 2.3125,1.78125 1.5625,0.67188 3.515625,0.67188 1.734375,0 3.0625,-0.51563 1.328125,-0.51562 1.96875,-1.40625 0.65625,-0.90625 0.65625,-1.96875 0,-1.07812 -0.625,-1.875 -0.625,-0.8125 -2.0625,-1.35937 -0.921875,-0.35938 -4.078125,-1.10938 -3.15625,-0.76562 -4.421875,-1.4375 -1.640625,-0.85937 -2.453125,-2.125 -0.796875,-1.28125 -0.796875,-2.85937 0,-1.73438 0.984375,-3.23438 0.984375,-1.51562 2.875,-2.29687 1.890625,-0.78125 4.203125,-0.78125 2.546875,0 4.484375,0.82812 1.953125,0.8125 3,2.40625 1.046875,1.59375 1.125,3.60938 l -2.90625,0.21875 q -0.234375,-2.17188 -1.59375,-3.28125 -1.34375,-1.10938 -3.984375,-1.10938 -2.75,0 -4.015625,1.01563 -1.25,1 -1.25,2.42187 0,1.23438 0.890625,2.03125 0.875,0.79688 4.5625,1.64063 3.703125,0.82812 5.078125,1.45312 2,0.92188 2.953125,2.34375 0.953125,1.40625 0.953125,3.25 0,1.82813 -1.046875,3.45313 -1.046875,1.60937 -3.015625,2.51562 -1.953125,0.89063 -4.40625,0.89063 -3.109375,0 -5.21875,-0.90625 -2.09375,-0.90625 -3.296875,-2.71875 -1.1875,-1.82813 -1.25,-4.125 z m 28.15625,4.84375 0.40625,2.48437 q -1.1875,0.25 -2.125,0.25 -1.53125,0 -2.375,-0.48437 -0.84375,-0.48438 -1.1875,-1.26563 -0.34375,-0.79687 -0.34375,-3.32812 v -9.54688 h -2.0625 v -2.1875 h 2.0625 v -4.10937 l 2.796875,-1.6875 v 5.79687 h 2.828125 v 2.1875 h -2.828125 v 9.70313 q 0,1.20312 0.140625,1.54687 0.15625,0.34375 0.484375,0.54688 0.34375,0.20312 0.96875,0.20312 0.46875,0 1.234375,-0.10937 z m 13.578125,0.46875 q -1.5625,1.32812 -3.015625,1.875 -1.4375,0.54687 -3.09375,0.54687 -2.734375,0 -4.203125,-1.32812 -1.46875,-1.34375 -1.46875,-3.42188 0,-1.21875 0.546875,-2.21875 0.5625,-1.01562 1.453125,-1.625 0.90625,-0.60937 2.03125,-0.92187 0.828125,-0.21875 2.5,-0.42188 3.40625,-0.40625 5.015625,-0.96875 0.01563,-0.57812 0.01563,-0.73437 0,-1.71875 -0.796875,-2.42188 -1.078125,-0.95312 -3.203125,-0.95312 -1.984375,0 -2.9375,0.70312 -0.9375,0.6875 -1.390625,2.45313 l -2.75,-0.375 q 0.375,-1.76563 1.234375,-2.84375 0.859375,-1.09375 2.484375,-1.67188 1.625,-0.59375 3.765625,-0.59375 2.125,0 3.453125,0.5 1.328125,0.5 1.953125,1.26563 0.625,0.75 0.875,1.90625 0.140625,0.71875 0.140625,2.59375 v 3.75 q 0,3.92187 0.171875,4.96875 0.1875,1.03125 0.71875,1.98437 h -2.9375 q -0.4375,-0.875 -0.5625,-2.04687 z m -0.234375,-6.28125 q -1.53125,0.625 -4.59375,1.0625 -1.734375,0.25 -2.453125,0.5625 -0.71875,0.3125 -1.109375,0.92187 -0.390625,0.59375 -0.390625,1.32813 0,1.125 0.84375,1.875 0.859375,0.75 2.5,0.75 1.625,0 2.890625,-0.70313 1.265625,-0.71875 1.859375,-1.95312 0.453125,-0.95313 0.453125,-2.8125 z m 7.171875,8.32812 V 204.121 h 2.53125 v 2.51563 q 0.96875,-1.76563 1.78125,-2.32813 0.828125,-0.5625 1.8125,-0.5625 1.421875,0 2.890625,0.90625 l -0.96875,2.60938 q -1.03125,-0.60938 -2.0625,-0.60938 -0.921875,0 -1.65625,0.5625 -0.734375,0.54688 -1.046875,1.53125 -0.46875,1.5 -0.46875,3.28125 v 8.6875 z m 16.828125,-2.51562 0.40625,2.48437 q -1.1875,0.25 -2.125,0.25 -1.53125,0 -2.375,-0.48437 -0.84375,-0.48438 -1.1875,-1.26563 -0.34375,-0.79687 -0.34375,-3.32812 v -9.54688 h -2.0625 v -2.1875 h 2.0625 v -4.10937 l 2.79688,-1.6875 v 5.79687 h 2.82812 v 2.1875 h -2.82812 v 9.70313 q 0,1.20312 0.14062,1.54687 0.15625,0.34375 0.48438,0.54688 0.34375,0.20312 0.96875,0.20312 0.46875,0 1.23437,-0.10937 z m 11.64063,2.51562 V 197.8085 h 2.8125 v 8.21875 q 1.96875,-2.28125 4.96874,-2.28125 1.84375,0 3.20313,0.73438 1.35937,0.71875 1.9375,2 0.59375,1.28125 0.59375,3.71875 v 10.51562 h -2.8125 v -10.51562 q 0,-2.10938 -0.92188,-3.0625 -0.90625,-0.96875 -2.57812,-0.96875 -1.25,0 -2.35937,0.65625 -1.09375,0.64062 -1.5625,1.75 -0.46875,1.10937 -0.46875,3.0625 v 9.07812 z m 29.15624,-5.34375 2.90625,0.35938 q -0.6875,2.54687 -2.54687,3.95312 -1.85938,1.40625 -4.75,1.40625 -3.64063,0 -5.78125,-2.23437 -2.125,-2.25 -2.125,-6.29688 0,-4.1875 2.15625,-6.5 2.15625,-2.3125 5.59375,-2.3125 3.32812,0 5.4375,2.26563 2.10937,2.26562 2.10937,6.375 0,0.25 -0.0156,0.75 h -12.375 q 0.15625,2.73437 1.54687,4.1875 1.39063,1.45312 3.46875,1.45312 1.54688,0 2.64063,-0.8125 1.09375,-0.8125 1.73437,-2.59375 z m -9.23437,-4.54687 h 9.26562 q -0.1875,-2.09375 -1.0625,-3.14063 -1.34375,-1.625 -3.48437,-1.625 -1.9375,0 -3.26563,1.29688 -1.3125,1.29687 -1.45312,3.46875 z m 15.64062,9.89062 V 204.121 h 2.53125 v 2.51563 q 0.96875,-1.76563 1.78125,-2.32813 0.82813,-0.5625 1.8125,-0.5625 1.42188,0 2.89063,0.90625 l -0.96875,2.60938 q -1.03125,-0.60938 -2.0625,-0.60938 -0.92188,0 -1.65625,0.5625 -0.73438,0.54688 -1.04688,1.53125 -0.46875,1.5 -0.46875,3.28125 v 8.6875 z m 22.04688,-5.34375 2.90625,0.35938 q -0.6875,2.54687 -2.54688,3.95312 -1.85937,1.40625 -4.75,1.40625 -3.64062,0 -5.78125,-2.23437 -2.125,-2.25 -2.125,-6.29688 0,-4.1875 2.15625,-6.5 2.15625,-2.3125 5.59375,-2.3125 3.32813,0 5.4375,2.26563 2.10938,2.26562 2.10938,6.375 0,0.25 -0.0156,0.75 h -12.375 q 0.15625,2.73437 1.54688,4.1875 1.39062,1.45312 3.46875,1.45312 1.54687,0 2.64062,-0.8125 1.09375,-0.8125 1.73438,-2.59375 z m -9.23438,-4.54687 h 9.26563 q -0.1875,-2.09375 -1.0625,-3.14063 -1.34375,-1.625 -3.48438,-1.625 -1.9375,0 -3.26562,1.29688 -1.3125,1.29687 -1.45313,3.46875 z"
       id="path22"
       inkscape:connector-curvature="0"
       style="fill:#20124d;fill-rule:nonzero" />
    <path
       d="M 44.25566,280.71475 V 257.8085 h 16.5625 v 2.70312 H 47.28691 v 7.01563 h 12.671875 v 2.6875 H 47.28691 v 7.79687 h 14.0625 v 2.70313 z m 19.046875,0 6.0625,-8.625 -5.609375,-7.96875 h 3.515625 l 2.546875,3.89062 q 0.71875,1.10938 1.15625,1.85938 0.6875,-1.03125 1.265625,-1.82813 L 75.03691,264.121 h 3.359375 l -5.734375,7.8125 6.171875,8.78125 H 75.38066 l -3.40625,-5.15625 -0.90625,-1.39063 -4.359375,6.54688 z m 28.703125,-2.04688 q -1.5625,1.32813 -3.015625,1.875 -1.4375,0.54688 -3.09375,0.54688 -2.734375,0 -4.203125,-1.32813 -1.46875,-1.34375 -1.46875,-3.42187 0,-1.21875 0.546875,-2.21875 0.5625,-1.01563 1.453125,-1.625 0.90625,-0.60938 2.03125,-0.92188 0.828125,-0.21875 2.5,-0.42187 3.40625,-0.40625 5.015625,-0.96875 0.01563,-0.57813 0.01563,-0.73438 0,-1.71875 -0.796875,-2.42187 -1.078125,-0.95313 -3.203125,-0.95313 -1.984375,0 -2.9375,0.70313 -0.9375,0.6875 -1.390625,2.45312 l -2.75,-0.375 q 0.375,-1.76562 1.234375,-2.84375 0.859375,-1.09375 2.484375,-1.67187 1.625,-0.59375 3.765625,-0.59375 2.125,0 3.453125,0.5 1.328125,0.5 1.953125,1.26562 0.625,0.75 0.875,1.90625 0.140625,0.71875 0.140625,2.59375 v 3.75 q 0,3.92188 0.171875,4.96875 0.1875,1.03125 0.71875,1.98438 h -2.9375 q -0.4375,-0.875 -0.5625,-2.04688 z m -0.234375,-6.28125 q -1.53125,0.625 -4.59375,1.0625 -1.734375,0.25 -2.453125,0.5625 -0.71875,0.3125 -1.109375,0.92188 -0.390625,0.59375 -0.390625,1.32812 0,1.125 0.84375,1.875 0.859375,0.75 2.5,0.75 1.625,0 2.890625,-0.70312 1.265625,-0.71875 1.859375,-1.95313 0.453125,-0.95312 0.453125,-2.8125 z m 7.203125,8.32813 V 264.121 h 2.51563 v 2.32812 q 0.78125,-1.21875 2.07812,-1.95312 1.29688,-0.75 2.95313,-0.75 1.84375,0 3.01562,0.76562 1.1875,0.76563 1.67188,2.14063 1.96875,-2.90625 5.125,-2.90625 2.46875,0 3.79687,1.375 1.32813,1.35937 1.32813,4.20312 v 11.39063 h -2.79688 v -10.45313 q 0,-1.6875 -0.28125,-2.42187 -0.26562,-0.75 -0.98437,-1.20313 -0.71875,-0.45312 -1.6875,-0.45312 -1.75,0 -2.90625,1.17187 -1.15625,1.15625 -1.15625,3.71875 v 9.64063 h -2.8125 V 269.9335 q 0,-1.875 -0.6875,-2.8125 -0.6875,-0.9375 -2.25,-0.9375 -1.1875,0 -2.20313,0.625 -1,0.625 -1.45312,1.82812 -0.45313,1.20313 -0.45313,3.46875 v 8.60938 z m 26.67188,-19.67188 v -3.23437 h 2.81249 v 3.23437 z m 0,19.67188 V 264.121 h 2.81249 v 16.59375 z m 7.09374,0 V 264.121 h 2.53125 v 2.35937 q 1.82813,-2.73437 5.28125,-2.73437 1.5,0 2.75,0.54687 1.26563,0.53125 1.89063,1.40625 0.625,0.875 0.875,2.07813 0.15625,0.78125 0.15625,2.73437 v 10.20313 h -2.8125 V 270.621 q 0,-1.71875 -0.32813,-2.5625 -0.32812,-0.85938 -1.17187,-1.35938 -0.82813,-0.51562 -1.95313,-0.51562 -1.79687,0 -3.10937,1.14062 -1.29688,1.14063 -1.29688,4.32813 v 9.0625 z m 29.15625,-5.34375 2.90625,0.35937 q -0.6875,2.54688 -2.54687,3.95313 -1.85938,1.40625 -4.75,1.40625 -3.64063,0 -5.78125,-2.23438 -2.125,-2.25 -2.125,-6.29687 0,-4.1875 2.15625,-6.5 2.15625,-2.3125 5.59375,-2.3125 3.32812,0 5.4375,2.26562 2.10937,2.26563 2.10937,6.375 0,0.25 -0.0156,0.75 h -12.375 q 0.15625,2.73438 1.54687,4.1875 1.39063,1.45313 3.46875,1.45313 1.54688,0 2.64063,-0.8125 1.09375,-0.8125 1.73437,-2.59375 z m -9.23437,-4.54688 h 9.26562 q -0.1875,-2.09375 -1.0625,-3.14062 -1.34375,-1.625 -3.48437,-1.625 -1.9375,0 -3.26563,1.29687 -1.3125,1.29688 -1.45312,3.46875 z"
       id="path24"
       inkscape:connector-curvature="0"
       style="fill:#20124d;fill-rule:nonzero" />
    <path
       d="M 44.25566,318.71475 V 295.8085 h 16.5625 v 2.70312 H 47.28691 v 7.01563 h 12.671875 v 2.6875 H 47.28691 v 7.79687 h 14.0625 v 2.70313 z m 25.53125,0 -6.3125,-16.59375 h 2.96875 l 3.5625,9.9375 q 0.578125,1.60937 1.0625,3.34375 0.375,-1.3125 1.046875,-3.15625 l 3.6875,-10.125 h 2.890625 l -6.28125,16.59375 z m 22.75,-5.34375 2.90625,0.35937 q -0.6875,2.54688 -2.546875,3.95313 -1.859375,1.40625 -4.75,1.40625 -3.640625,0 -5.78125,-2.23438 -2.125,-2.25 -2.125,-6.29687 0,-4.1875 2.15625,-6.5 2.15625,-2.3125 5.59375,-2.3125 3.328125,0 5.4375,2.26562 2.109375,2.26563 2.109375,6.375 0,0.25 -0.01563,0.75 h -12.375 q 0.15625,2.73438 1.546875,4.1875 1.390625,1.45313 3.46875,1.45313 1.546875,0 2.640625,-0.8125 1.09375,-0.8125 1.734375,-2.59375 z m -9.234375,-4.54688 h 9.265625 q -0.1875,-2.09375 -1.0625,-3.14062 -1.34375,-1.625 -3.484375,-1.625 -1.9375,0 -3.265625,1.29687 -1.3125,1.29688 -1.453125,3.46875 z m 15.640625,9.89063 V 302.121 h 2.53125 v 2.51562 q 0.96875,-1.76562 1.78125,-2.32812 0.82813,-0.5625 1.8125,-0.5625 1.42188,0 2.89063,0.90625 l -0.96875,2.60937 q -1.03125,-0.60937 -2.0625,-0.60937 -0.92188,0 -1.65625,0.5625 -0.73438,0.54687 -1.04688,1.53125 -0.46875,1.5 -0.46875,3.28125 v 8.6875 z m 10.5625,6.39062 -0.3125,-2.64062 q 0.92188,0.25 1.60938,0.25 0.9375,0 1.5,-0.3125 0.5625,-0.3125 0.92187,-0.875 0.26563,-0.42188 0.85938,-2.09375 0.0781,-0.23438 0.25,-0.6875 l -6.29688,-16.625 h 3.03125 l 3.45313,9.60937 q 0.67187,1.82813 1.20312,3.84375 0.48438,-1.9375 1.15625,-3.78125 l 3.54688,-9.67187 h 2.8125 l -6.3125,16.875 q -1.01563,2.73437 -1.57813,3.76562 -0.75,1.39063 -1.71875,2.03125 -0.96875,0.65625 -2.3125,0.65625 -0.8125,0 -1.8125,-0.34375 z m 24.98437,-6.39062 V 302.121 h 2.53125 v 2.51562 q 0.96875,-1.76562 1.78125,-2.32812 0.82813,-0.5625 1.8125,-0.5625 1.42188,0 2.89063,0.90625 l -0.96875,2.60937 q -1.03125,-0.60937 -2.0625,-0.60937 -0.92188,0 -1.65625,0.5625 -0.73438,0.54687 -1.04688,1.53125 -0.46875,1.5 -0.46875,3.28125 v 8.6875 z m 9.64063,-8.29688 q 0,-4.60937 2.5625,-6.82812 2.14062,-1.84375 5.21875,-1.84375 3.42187,0 5.59375,2.25 2.17187,2.23437 2.17187,6.1875 0,3.20312 -0.96875,5.04687 -0.95312,1.82813 -2.79687,2.84375 -1.82813,1.01563 -4,1.01563 -3.48438,0 -5.64063,-2.23438 -2.14062,-2.23437 -2.14062,-6.4375 z m 2.89062,0 q 0,3.1875 1.39063,4.78125 1.39062,1.57813 3.5,1.57813 2.09375,0 3.48437,-1.59375 1.39063,-1.59375 1.39063,-4.85938 0,-3.07812 -1.40625,-4.65625 -1.39063,-1.59375 -3.46875,-1.59375 -2.10938,0 -3.5,1.57813 -1.39063,1.57812 -1.39063,4.76562 z m 19.01563,8.29688 -5.07813,-16.59375 h 2.90625 l 2.64063,9.57812 0.98437,3.5625 q 0.0625,-0.26562 0.85938,-3.42187 l 2.64062,-9.71875 h 2.89063 l 2.48437,9.625 0.82813,3.17187 0.95312,-3.20312 2.84375,-9.59375 h 2.73438 l -5.1875,16.59375 h -2.92188 l -2.64062,-9.9375 -0.64063,-2.82813 -3.35937,12.76563 z"
       id="path26"
       inkscape:connector-curvature="0"
       style="fill:#20124d;fill-rule:nonzero" />
    <path
       d="M 44.34941,438.71475 V 415.8085 h 15.453125 v 2.70312 H 47.38066 v 7.09375 h 10.75 v 2.70313 h -10.75 v 10.40625 z m 19.046875,-19.67188 v -3.23437 h 2.8125 v 3.23437 z m 0,19.67188 V 422.121 h 2.8125 v 16.59375 z m 7.09375,0 V 422.121 h 2.53125 v 2.35937 q 1.828125,-2.73437 5.28125,-2.73437 1.5,0 2.75,0.54687 1.265625,0.53125 1.890625,1.40625 0.625,0.875 0.875,2.07813 0.15625,0.78125 0.15625,2.73437 v 10.20313 h -2.8125 V 428.621 q 0,-1.71875 -0.328125,-2.5625 -0.328125,-0.85938 -1.171875,-1.35938 -0.828125,-0.51562 -1.953125,-0.51562 -1.796875,0 -3.109375,1.14062 -1.296875,1.14063 -1.296875,4.32813 v 9.0625 z m 17.8125,-19.67188 v -3.23437 h 2.8125 v 3.23437 z m 0,19.67188 V 422.121 h 2.8125 v 16.59375 z m 5.96875,-4.95313 2.78125,-0.4375 q 0.234375,1.67188 1.296875,2.5625 1.078125,0.89063 3,0.89063 1.9375,0 2.875,-0.78125 0.9375,-0.79688 0.9375,-1.85938 0,-0.95312 -0.82812,-1.5 -0.57813,-0.375 -2.875,-0.95312 -3.093755,-0.78125 -4.29688,-1.34375 -1.1875,-0.57813 -1.8125,-1.57813 -0.609375,-1.01562 -0.609375,-2.23437 0,-1.10938 0.5,-2.04688 0.515625,-0.95312 1.390625,-1.57812 0.65625,-0.48438 1.78125,-0.8125 1.140625,-0.34375 2.4375,-0.34375 1.95313,0 3.42188,0.5625 1.48437,0.5625 2.1875,1.53125 0.70312,0.95312 0.96875,2.5625 l -2.75,0.375 q -0.1875,-1.28125 -1.09375,-2 -0.89063,-0.71875 -2.53125,-0.71875 -1.937505,0 -2.76563,0.64062 -0.828125,0.64063 -0.828125,1.5 0,0.54688 0.34375,0.98438 0.34375,0.45312 1.078125,0.75 0.421875,0.15625 2.48438,0.71875 2.98437,0.79687 4.15625,1.3125 1.1875,0.5 1.85937,1.46875 0.67188,0.96875 0.67188,2.40625 0,1.40625 -0.82813,2.65625 -0.8125,1.23437 -2.35937,1.92187 -1.54688,0.67188 -3.5,0.67188 -3.23438,0 -4.937505,-1.34375 -1.6875,-1.34375 -2.15625,-3.98438 z m 17.125005,4.95313 V 415.8085 h 2.8125 v 8.21875 q 1.96875,-2.28125 4.96875,-2.28125 1.84375,0 3.20312,0.73437 1.35938,0.71875 1.9375,2 0.59375,1.28125 0.59375,3.71875 v 10.51563 h -2.8125 v -10.51563 q 0,-2.10937 -0.92187,-3.0625 -0.90625,-0.96875 -2.57813,-0.96875 -1.25,0 -2.35937,0.65625 -1.09375,0.64063 -1.5625,1.75 -0.46875,1.10938 -0.46875,3.0625 v 9.07813 z m 26.68749,0 V 415.8085 h 2.8125 v 8.21875 q 1.96875,-2.28125 4.96875,-2.28125 1.84375,0 3.20313,0.73437 1.35937,0.71875 1.9375,2 0.59375,1.28125 0.59375,3.71875 v 10.51563 h -2.8125 v -10.51563 q 0,-2.10937 -0.92188,-3.0625 -0.90625,-0.96875 -2.57812,-0.96875 -1.25,0 -2.35938,0.65625 -1.09375,0.64063 -1.5625,1.75 -0.46875,1.10938 -0.46875,3.0625 v 9.07813 z m 29.15625,-5.34375 2.90625,0.35937 q -0.6875,2.54688 -2.54687,3.95313 -1.85938,1.40625 -4.75,1.40625 -3.64063,0 -5.78125,-2.23438 -2.125,-2.25 -2.125,-6.29687 0,-4.1875 2.15625,-6.5 2.15625,-2.3125 5.59375,-2.3125 3.32812,0 5.4375,2.26562 2.10937,2.26563 2.10937,6.375 0,0.25 -0.0156,0.75 h -12.375 q 0.15625,2.73438 1.54687,4.1875 1.39063,1.45313 3.46875,1.45313 1.54688,0 2.64063,-0.8125 1.09375,-0.8125 1.73437,-2.59375 z m -9.23437,-4.54688 h 9.26562 q -0.1875,-2.09375 -1.0625,-3.14062 -1.34375,-1.625 -3.48437,-1.625 -1.9375,0 -3.26563,1.29687 -1.3125,1.29688 -1.45312,3.46875 z m 15.64062,9.89063 V 422.121 h 2.53125 v 2.51562 q 0.96875,-1.76562 1.78125,-2.32812 0.82813,-0.5625 1.8125,-0.5625 1.42188,0 2.89063,0.90625 l -0.96875,2.60937 q -1.03125,-0.60937 -2.0625,-0.60937 -0.92188,0 -1.65625,0.5625 -0.73438,0.54687 -1.04688,1.53125 -0.46875,1.5 -0.46875,3.28125 v 8.6875 z m 22.04688,-5.34375 2.90625,0.35937 q -0.6875,2.54688 -2.54688,3.95313 -1.85937,1.40625 -4.75,1.40625 -3.64062,0 -5.78125,-2.23438 -2.125,-2.25 -2.125,-6.29687 0,-4.1875 2.15625,-6.5 2.15625,-2.3125 5.59375,-2.3125 3.32813,0 5.4375,2.26562 2.10938,2.26563 2.10938,6.375 0,0.25 -0.0156,0.75 h -12.375 q 0.15625,2.73438 1.54688,4.1875 1.39062,1.45313 3.46875,1.45313 1.54687,0 2.64062,-0.8125 1.09375,-0.8125 1.73438,-2.59375 z m -9.23438,-4.54688 h 9.26563 q -0.1875,-2.09375 -1.0625,-3.14062 -1.34375,-1.625 -3.48438,-1.625 -1.9375,0 -3.26562,1.29687 -1.3125,1.29688 -1.45313,3.46875 z"
       id="path28"
       inkscape:connector-curvature="0"
       style="fill:#20124d;fill-rule:nonzero" />
    <path
       d="M 507.3386,120.99475 H 927.27558 V 479.6719 H 507.3386 Z"
       id="path30"
       inkscape:connector-curvature="0"
       style="fill:#000000;fill-opacity:0;fill-rule:evenodd" />
    <path
       d="M 519.32294,160.71475 V 137.8085 h 3.03125 v 22.90625 z m 8.01563,0 V 144.121 h 2.53125 v 2.35937 q 1.82812,-2.73437 5.28125,-2.73437 1.5,0 2.75,0.54687 1.26562,0.53125 1.89062,1.40625 0.625,0.875 0.875,2.07813 0.15625,0.78125 0.15625,2.73437 v 10.20313 h -2.8125 V 150.621 q 0,-1.71875 -0.32812,-2.5625 -0.32813,-0.85938 -1.17188,-1.35938 -0.82812,-0.51562 -1.95312,-0.51562 -1.79688,0 -3.10938,1.14062 -1.29687,1.14063 -1.29687,4.32813 v 9.0625 z m 28.5625,0 V 158.621 q -1.57813,2.46875 -4.64063,2.46875 -1.98437,0 -3.65625,-1.09375 -1.65625,-1.09375 -2.57812,-3.04688 -0.90625,-1.96875 -0.90625,-4.51562 0,-2.48438 0.82812,-4.5 0.82813,-2.03125 2.48438,-3.10938 1.65625,-1.07812 3.70312,-1.07812 1.5,0 2.67188,0.64062 1.17187,0.625 1.90625,1.64063 v -8.21875 h 2.79687 v 22.90625 z m -8.89063,-8.28125 q 0,3.1875 1.34375,4.76562 1.34375,1.57813 3.17188,1.57813 1.84375,0 3.125,-1.5 1.29687,-1.51563 1.29687,-4.60938 0,-3.40625 -1.3125,-5 -1.3125,-1.59375 -3.23437,-1.59375 -1.875,0 -3.14063,1.53125 -1.25,1.53125 -1.25,4.82813 z m 27.28125,2.9375 2.90625,0.35937 q -0.6875,2.54688 -2.54687,3.95313 -1.85938,1.40625 -4.75,1.40625 -3.64063,0 -5.78125,-2.23438 -2.125,-2.25 -2.125,-6.29687 0,-4.1875 2.15625,-6.5 2.15625,-2.3125 5.59375,-2.3125 3.32812,0 5.4375,2.26562 2.10937,2.26563 2.10937,6.375 0,0.25 -0.0156,0.75 h -12.375 q 0.15625,2.73438 1.54687,4.1875 1.39063,1.45313 3.46875,1.45313 1.54688,0 2.64063,-0.8125 1.09375,-0.8125 1.73437,-2.59375 z m -9.23437,-4.54688 h 9.26562 q -0.1875,-2.09375 -1.0625,-3.14062 -1.34375,-1.625 -3.48437,-1.625 -1.9375,0 -3.26563,1.29687 -1.3125,1.29688 -1.45312,3.46875 z m 13.79687,9.89063 6.0625,-8.625 -5.60937,-7.96875 h 3.51562 l 2.54688,3.89062 q 0.71875,1.10938 1.15625,1.85938 0.6875,-1.03125 1.26562,-1.82813 l 2.79688,-3.92187 h 3.35937 l -5.73437,7.8125 6.17187,8.78125 h -3.45312 l -3.40625,-5.15625 -0.90625,-1.39063 -4.35938,6.54688 z m 29.23438,-5.34375 2.90625,0.35937 q -0.6875,2.54688 -2.54688,3.95313 -1.85937,1.40625 -4.75,1.40625 -3.64062,0 -5.78125,-2.23438 -2.125,-2.25 -2.125,-6.29687 0,-4.1875 2.15625,-6.5 2.15625,-2.3125 5.59375,-2.3125 3.32813,0 5.4375,2.26562 2.10938,2.26563 2.10938,6.375 0,0.25 -0.0156,0.75 h -12.375 q 0.15625,2.73438 1.54688,4.1875 1.39062,1.45313 3.46875,1.45313 1.54687,0 2.64062,-0.8125 1.09375,-0.8125 1.73438,-2.59375 z m -9.23438,-4.54688 h 9.26563 q -0.1875,-2.09375 -1.0625,-3.14062 -1.34375,-1.625 -3.48438,-1.625 -1.9375,0 -3.26562,1.29687 -1.3125,1.29688 -1.45313,3.46875 z m 26.4375,9.89063 V 158.621 q -1.57812,2.46875 -4.64062,2.46875 -1.98438,0 -3.65625,-1.09375 -1.65625,-1.09375 -2.57813,-3.04688 -0.90625,-1.96875 -0.90625,-4.51562 0,-2.48438 0.82813,-4.5 0.82812,-2.03125 2.48437,-3.10938 1.65625,-1.07812 3.70313,-1.07812 1.5,0 2.67187,0.64062 1.17188,0.625 1.90625,1.64063 v -8.21875 h 2.79688 v 22.90625 z m -8.89062,-8.28125 q 0,3.1875 1.34375,4.76562 1.34375,1.57813 3.17187,1.57813 1.84375,0 3.125,-1.5 1.29688,-1.51563 1.29688,-4.60938 0,-3.40625 -1.3125,-5 -1.3125,-1.59375 -3.23438,-1.59375 -1.875,0 -3.14062,1.53125 -1.25,1.53125 -1.25,4.82813 z m 42.53125,5.82812 q 2.10937,1.45313 3.89062,2.125 l -0.89062,2.10938 q -2.46875,-0.89063 -4.92188,-2.8125 -2.54687,1.42187 -5.625,1.42187 -3.10937,0 -5.64062,-1.5 -2.53125,-1.5 -3.90625,-4.21875 -1.35938,-2.71875 -1.35938,-6.125 0,-3.39062 1.375,-6.17187 1.375,-2.78125 3.90625,-4.23438 2.54688,-1.45312 5.6875,-1.45312 3.17188,0 5.71875,1.51562 2.54688,1.5 3.875,4.21875 1.34375,2.70313 1.34375,6.10938 0,2.82812 -0.85937,5.09375 -0.85938,2.25 -2.59375,3.92187 z m -6.67188,-3.875 q 2.625,0.73438 4.32813,2.1875 2.67187,-2.4375 2.67187,-7.32812 0,-2.78125 -0.95312,-4.85938 -0.9375,-2.07812 -2.76563,-3.21875 -1.8125,-1.15625 -4.07812,-1.15625 -3.39063,0 -5.625,2.32813 -2.23438,2.3125 -2.23438,6.92187 0,4.46875 2.20313,6.85938 2.21875,2.39062 5.65625,2.39062 1.625,0 3.0625,-0.60937 -1.42188,-0.92188 -3,-1.3125 z m 24.71875,6.32813 v -2.4375 q -1.9375,2.8125 -5.26562,2.8125 -1.46875,0 -2.75,-0.5625 -1.26563,-0.5625 -1.89063,-1.40625 -0.60937,-0.85938 -0.85937,-2.09375 -0.17188,-0.82813 -0.17188,-2.625 V 144.121 h 2.8125 v 9.20312 q 0,2.20313 0.17188,2.96875 0.26562,1.10938 1.125,1.75 0.85937,0.625 2.125,0.625 1.26562,0 2.375,-0.64062 1.10937,-0.65625 1.5625,-1.76563 0.46875,-1.125 0.46875,-3.25 V 144.121 h 2.8125 v 16.59375 z m 18.28125,-5.34375 2.90625,0.35937 q -0.6875,2.54688 -2.54687,3.95313 -1.85938,1.40625 -4.75,1.40625 -3.64063,0 -5.78125,-2.23438 -2.125,-2.25 -2.125,-6.29687 0,-4.1875 2.15625,-6.5 2.15625,-2.3125 5.59375,-2.3125 3.32812,0 5.4375,2.26562 2.10937,2.26563 2.10937,6.375 0,0.25 -0.0156,0.75 h -12.375 q 0.15625,2.73438 1.54687,4.1875 1.39063,1.45313 3.46875,1.45313 1.54688,0 2.64063,-0.8125 1.09375,-0.8125 1.73437,-2.59375 z m -9.23437,-4.54688 h 9.26562 q -0.1875,-2.09375 -1.0625,-3.14062 -1.34375,-1.625 -3.48437,-1.625 -1.9375,0 -3.26563,1.29687 -1.3125,1.29688 -1.45312,3.46875 z m 15.64062,9.89063 V 144.121 h 2.53125 v 2.51562 q 0.96875,-1.76562 1.78125,-2.32812 0.82813,-0.5625 1.8125,-0.5625 1.42188,0 2.89063,0.90625 l -0.96875,2.60937 q -1.03125,-0.60937 -2.0625,-0.60937 -0.92188,0 -1.65625,0.5625 -0.73438,0.54687 -1.04688,1.53125 -0.46875,1.5 -0.46875,3.28125 v 8.6875 z m 10.5625,6.39062 -0.3125,-2.64062 q 0.92188,0.25 1.60938,0.25 0.9375,0 1.5,-0.3125 0.5625,-0.3125 0.92187,-0.875 0.26563,-0.42188 0.85938,-2.09375 0.0781,-0.23438 0.25,-0.6875 l -6.29688,-16.625 h 3.03125 l 3.45313,9.60937 q 0.67187,1.82813 1.20312,3.84375 0.48438,-1.9375 1.15625,-3.78125 l 3.54688,-9.67187 h 2.8125 l -6.3125,16.875 q -1.01563,2.73437 -1.57813,3.76562 -0.75,1.39063 -1.71875,2.03125 -0.96875,0.65625 -2.3125,0.65625 -0.8125,0 -1.8125,-0.34375 z m 16.90625,-19.78125 V 144.121 h 3.20313 v 3.20312 z m 0,13.39063 v -3.20313 h 3.20313 v 3.20313 z"
       id="path32"
       inkscape:connector-curvature="0"
       style="fill:#20124d;fill-rule:nonzero" />
    <path
       d="m 517.77606,213.35538 2.85938,-0.25 q 0.20312,1.71875 0.9375,2.82812 0.75,1.09375 2.3125,1.78125 1.5625,0.67188 3.51562,0.67188 1.73438,0 3.0625,-0.51563 1.32813,-0.51562 1.96875,-1.40625 0.65625,-0.90625 0.65625,-1.96875 0,-1.07812 -0.625,-1.875 -0.625,-0.8125 -2.0625,-1.35937 -0.92187,-0.35938 -4.07812,-1.10938 -3.15625,-0.76562 -4.42188,-1.4375 -1.64062,-0.85937 -2.45312,-2.125 -0.79688,-1.28125 -0.79688,-2.85937 0,-1.73438 0.98438,-3.23438 0.98437,-1.51562 2.875,-2.29687 1.89062,-0.78125 4.20312,-0.78125 2.54688,0 4.48438,0.82812 1.95312,0.8125 3,2.40625 1.04687,1.59375 1.125,3.60938 l -2.90625,0.21875 q -0.23438,-2.17188 -1.59375,-3.28125 -1.34375,-1.10938 -3.98438,-1.10938 -2.75,0 -4.01562,1.01563 -1.25,1 -1.25,2.42187 0,1.23438 0.89062,2.03125 0.875,0.79688 4.5625,1.64063 3.70313,0.82812 5.07813,1.45312 2,0.92188 2.95312,2.34375 0.95313,1.40625 0.95313,3.25 0,1.82813 -1.04688,3.45313 -1.04687,1.60937 -3.01562,2.51562 -1.95313,0.89063 -4.40625,0.89063 -3.10938,0 -5.21875,-0.90625 -2.09375,-0.90625 -3.29688,-2.71875 -1.1875,-1.82813 -1.25,-4.125 z m 28.15625,4.84375 0.40625,2.48437 q -1.1875,0.25 -2.125,0.25 -1.53125,0 -2.375,-0.48437 -0.84375,-0.48438 -1.1875,-1.26563 -0.34375,-0.79687 -0.34375,-3.32812 v -9.54688 h -2.0625 v -2.1875 h 2.0625 v -4.10937 l 2.79688,-1.6875 v 5.79687 h 2.82812 v 2.1875 h -2.82812 v 9.70313 q 0,1.20312 0.14062,1.54687 0.15625,0.34375 0.48438,0.54688 0.34375,0.20312 0.96875,0.20312 0.46875,0 1.23437,-0.10937 z m 13.57813,0.46875 q -1.5625,1.32812 -3.01563,1.875 -1.4375,0.54687 -3.09375,0.54687 -2.73437,0 -4.20312,-1.32812 -1.46875,-1.34375 -1.46875,-3.42188 0,-1.21875 0.54687,-2.21875 0.5625,-1.01562 1.45313,-1.625 0.90625,-0.60937 2.03125,-0.92187 0.82812,-0.21875 2.5,-0.42188 3.40625,-0.40625 5.01562,-0.96875 0.0156,-0.57812 0.0156,-0.73437 0,-1.71875 -0.79688,-2.42188 -1.07812,-0.95312 -3.20312,-0.95312 -1.98438,0 -2.9375,0.70312 -0.9375,0.6875 -1.39063,2.45313 l -2.75,-0.375 q 0.375,-1.76563 1.23438,-2.84375 0.85937,-1.09375 2.48437,-1.67188 1.625,-0.59375 3.76563,-0.59375 2.125,0 3.45312,0.5 1.32813,0.5 1.95313,1.26563 0.625,0.75 0.875,1.90625 0.14062,0.71875 0.14062,2.59375 v 3.75 q 0,3.92187 0.17188,4.96875 0.1875,1.03125 0.71875,1.98437 h -2.9375 q -0.4375,-0.875 -0.5625,-2.04687 z m -0.23438,-6.28125 q -1.53125,0.625 -4.59375,1.0625 -1.73437,0.25 -2.45312,0.5625 -0.71875,0.3125 -1.10938,0.92187 -0.39062,0.59375 -0.39062,1.32813 0,1.125 0.84375,1.875 0.85937,0.75 2.5,0.75 1.625,0 2.89062,-0.70313 1.26563,-0.71875 1.85938,-1.95312 0.45312,-0.95313 0.45312,-2.8125 z m 7.17188,8.32812 V 204.121 h 2.53125 v 2.51563 q 0.96875,-1.76563 1.78125,-2.32813 0.82812,-0.5625 1.8125,-0.5625 1.42187,0 2.89062,0.90625 l -0.96875,2.60938 q -1.03125,-0.60938 -2.0625,-0.60938 -0.92187,0 -1.65625,0.5625 -0.73437,0.54688 -1.04687,1.53125 -0.46875,1.5 -0.46875,3.28125 v 8.6875 z m 16.82812,-2.51562 0.40625,2.48437 q -1.1875,0.25 -2.125,0.25 -1.53125,0 -2.375,-0.48437 -0.84375,-0.48438 -1.1875,-1.26563 -0.34375,-0.79687 -0.34375,-3.32812 v -9.54688 h -2.0625 v -2.1875 h 2.0625 v -4.10937 l 2.79688,-1.6875 v 5.79687 h 2.82812 v 2.1875 h -2.82812 v 9.70313 q 0,1.20312 0.14062,1.54687 0.15625,0.34375 0.48438,0.54688 0.34375,0.20312 0.96875,0.20312 0.46875,0 1.23437,-0.10937 z m 11.64063,2.51562 V 197.8085 h 2.8125 v 8.21875 q 1.96875,-2.28125 4.96875,-2.28125 1.84375,0 3.20312,0.73438 1.35938,0.71875 1.9375,2 0.59375,1.28125 0.59375,3.71875 v 10.51562 h -2.8125 v -10.51562 q 0,-2.10938 -0.92187,-3.0625 -0.90625,-0.96875 -2.57813,-0.96875 -1.25,0 -2.35937,0.65625 -1.09375,0.64062 -1.5625,1.75 -0.46875,1.10937 -0.46875,3.0625 v 9.07812 z m 29.15625,-5.34375 2.90625,0.35938 q -0.6875,2.54687 -2.54688,3.95312 -1.85937,1.40625 -4.75,1.40625 -3.64062,0 -5.78125,-2.23437 -2.125,-2.25 -2.125,-6.29688 0,-4.1875 2.15625,-6.5 2.15625,-2.3125 5.59375,-2.3125 3.32813,0 5.4375,2.26563 2.10938,2.26562 2.10938,6.375 0,0.25 -0.0156,0.75 h -12.375 q 0.15625,2.73437 1.54688,4.1875 1.39062,1.45312 3.46875,1.45312 1.54687,0 2.64062,-0.8125 1.09375,-0.8125 1.73438,-2.59375 z m -9.23438,-4.54687 h 9.26563 q -0.1875,-2.09375 -1.0625,-3.14063 -1.34375,-1.625 -3.48438,-1.625 -1.9375,0 -3.26562,1.29688 -1.3125,1.29687 -1.45313,3.46875 z m 15.64063,9.89062 V 204.121 h 2.53125 v 2.51563 q 0.96875,-1.76563 1.78125,-2.32813 0.82812,-0.5625 1.8125,-0.5625 1.42187,0 2.89062,0.90625 l -0.96875,2.60938 q -1.03125,-0.60938 -2.0625,-0.60938 -0.92187,0 -1.65625,0.5625 -0.73437,0.54688 -1.04687,1.53125 -0.46875,1.5 -0.46875,3.28125 v 8.6875 z m 22.04687,-5.34375 2.90625,0.35938 q -0.6875,2.54687 -2.54687,3.95312 -1.85938,1.40625 -4.75,1.40625 -3.64063,0 -5.78125,-2.23437 -2.125,-2.25 -2.125,-6.29688 0,-4.1875 2.15625,-6.5 2.15625,-2.3125 5.59375,-2.3125 3.32812,0 5.4375,2.26563 2.10937,2.26562 2.10937,6.375 0,0.25 -0.0156,0.75 h -12.375 q 0.15625,2.73437 1.54687,4.1875 1.39063,1.45312 3.46875,1.45312 1.54688,0 2.64063,-0.8125 1.09375,-0.8125 1.73437,-2.59375 z m -9.23437,-4.54687 h 9.26562 q -0.1875,-2.09375 -1.0625,-3.14063 -1.34375,-1.625 -3.48437,-1.625 -1.9375,0 -3.26563,1.29688 -1.3125,1.29687 -1.45312,3.46875 z"
       id="path34"
       inkscape:connector-curvature="0"
       style="fill:#20124d;fill-rule:nonzero" />
    <path
       d="M 518.96356,438.71475 V 415.8085 h 15.45313 v 2.70312 h -12.42188 v 7.09375 h 10.75 v 2.70313 h -10.75 v 10.40625 z m 19.04688,-19.67188 v -3.23437 h 2.8125 v 3.23437 z m 0,19.67188 V 422.121 h 2.8125 v 16.59375 z m 7.09375,0 V 422.121 h 2.53125 v 2.35937 q 1.82812,-2.73437 5.28125,-2.73437 1.5,0 2.75,0.54687 1.26562,0.53125 1.89062,1.40625 0.625,0.875 0.875,2.07813 0.15625,0.78125 0.15625,2.73437 v 10.20313 h -2.8125 V 428.621 q 0,-1.71875 -0.32812,-2.5625 -0.32813,-0.85938 -1.17188,-1.35938 -0.82812,-0.51562 -1.95312,-0.51562 -1.79688,0 -3.10938,1.14062 -1.29687,1.14063 -1.29687,4.32813 v 9.0625 z m 17.8125,-19.67188 v -3.23437 h 2.8125 v 3.23437 z m 0,19.67188 V 422.121 h 2.8125 v 16.59375 z m 5.96875,-4.95313 2.78125,-0.4375 q 0.23437,1.67188 1.29687,2.5625 1.07813,0.89063 3,0.89063 1.9375,0 2.875,-0.78125 0.9375,-0.79688 0.9375,-1.85938 0,-0.95312 -0.82812,-1.5 -0.57813,-0.375 -2.875,-0.95312 -3.09375,-0.78125 -4.29688,-1.34375 -1.1875,-0.57813 -1.8125,-1.57813 -0.60937,-1.01562 -0.60937,-2.23437 0,-1.10938 0.5,-2.04688 0.51562,-0.95312 1.39062,-1.57812 0.65625,-0.48438 1.78125,-0.8125 1.14063,-0.34375 2.4375,-0.34375 1.95313,0 3.42188,0.5625 1.48437,0.5625 2.1875,1.53125 0.70312,0.95312 0.96875,2.5625 l -2.75,0.375 q -0.1875,-1.28125 -1.09375,-2 -0.89063,-0.71875 -2.53125,-0.71875 -1.9375,0 -2.76563,0.64062 -0.82812,0.64063 -0.82812,1.5 0,0.54688 0.34375,0.98438 0.34375,0.45312 1.07812,0.75 0.42188,0.15625 2.48438,0.71875 2.98437,0.79687 4.15625,1.3125 1.1875,0.5 1.85937,1.46875 0.67188,0.96875 0.67188,2.40625 0,1.40625 -0.82813,2.65625 -0.8125,1.23437 -2.35937,1.92187 -1.54688,0.67188 -3.5,0.67188 -3.23438,0 -4.9375,-1.34375 -1.6875,-1.34375 -2.15625,-3.98438 z m 17.125,4.95313 V 415.8085 h 2.8125 v 8.21875 q 1.96875,-2.28125 4.96875,-2.28125 1.84375,0 3.20312,0.73437 1.35938,0.71875 1.9375,2 0.59375,1.28125 0.59375,3.71875 v 10.51563 h -2.8125 v -10.51563 q 0,-2.10937 -0.92187,-3.0625 -0.90625,-0.96875 -2.57813,-0.96875 -1.25,0 -2.35937,0.65625 -1.09375,0.64063 -1.5625,1.75 -0.46875,1.10938 -0.46875,3.0625 v 9.07813 z m 26.6875,0 V 415.8085 h 2.8125 v 8.21875 q 1.96875,-2.28125 4.96875,-2.28125 1.84375,0 3.20312,0.73437 1.35938,0.71875 1.9375,2 0.59375,1.28125 0.59375,3.71875 v 10.51563 h -2.8125 v -10.51563 q 0,-2.10937 -0.92187,-3.0625 -0.90625,-0.96875 -2.57813,-0.96875 -1.25,0 -2.35937,0.65625 -1.09375,0.64063 -1.5625,1.75 -0.46875,1.10938 -0.46875,3.0625 v 9.07813 z m 29.15625,-5.34375 2.90625,0.35937 q -0.6875,2.54688 -2.54688,3.95313 -1.85937,1.40625 -4.75,1.40625 -3.64062,0 -5.78125,-2.23438 -2.125,-2.25 -2.125,-6.29687 0,-4.1875 2.15625,-6.5 2.15625,-2.3125 5.59375,-2.3125 3.32813,0 5.4375,2.26562 2.10938,2.26563 2.10938,6.375 0,0.25 -0.0156,0.75 h -12.375 q 0.15625,2.73438 1.54688,4.1875 1.39062,1.45313 3.46875,1.45313 1.54687,0 2.64062,-0.8125 1.09375,-0.8125 1.73438,-2.59375 z m -9.23438,-4.54688 h 9.26563 q -0.1875,-2.09375 -1.0625,-3.14062 -1.34375,-1.625 -3.48438,-1.625 -1.9375,0 -3.26562,1.29687 -1.3125,1.29688 -1.45313,3.46875 z m 15.64063,9.89063 V 422.121 h 2.53125 v 2.51562 q 0.96875,-1.76562 1.78125,-2.32812 0.82812,-0.5625 1.8125,-0.5625 1.42187,0 2.89062,0.90625 l -0.96875,2.60937 q -1.03125,-0.60937 -2.0625,-0.60937 -0.92187,0 -1.65625,0.5625 -0.73437,0.54687 -1.04687,1.53125 -0.46875,1.5 -0.46875,3.28125 v 8.6875 z m 22.04687,-5.34375 2.90625,0.35937 q -0.6875,2.54688 -2.54687,3.95313 -1.85938,1.40625 -4.75,1.40625 -3.64063,0 -5.78125,-2.23438 -2.125,-2.25 -2.125,-6.29687 0,-4.1875 2.15625,-6.5 2.15625,-2.3125 5.59375,-2.3125 3.32812,0 5.4375,2.26562 2.10937,2.26563 2.10937,6.375 0,0.25 -0.0156,0.75 h -12.375 q 0.15625,2.73438 1.54687,4.1875 1.39063,1.45313 3.46875,1.45313 1.54688,0 2.64063,-0.8125 1.09375,-0.8125 1.73437,-2.59375 z m -9.23437,-4.54688 h 9.26562 q -0.1875,-2.09375 -1.0625,-3.14062 -1.34375,-1.625 -3.48437,-1.625 -1.9375,0 -3.26563,1.29687 -1.3125,1.29688 -1.45312,3.46875 z"
       id="path36"
       inkscape:connector-curvature="0"
       style="fill:#20124d;fill-rule:nonzero" />
    <path
       d="m 802.3228,179.14699 h 99.81104 V 470.89504 H 802.3228 Z"
       id="path38"
       inkscape:connector-curvature="0"
       style="fill:#eeeeee;fill-rule:evenodd" />
    <path
       d="m 802.3228,179.14699 h 99.81104 V 470.89504 H 802.3228 Z"
       id="path40"
       inkscape:connector-curvature="0"
       style="fill-rule:evenodd;stroke:#000000;stroke-width:1;stroke-linecap:butt;stroke-linejoin:round" />
    <path
       d="m 195.78215,208.57742 97.25984,-21.73229"
       id="path42"
       inkscape:connector-curvature="0"
       style="fill:#000000;fill-opacity:0;fill-rule:evenodd" />
    <path
       d="M 195.78215,208.57742 287.1864,188.15355"
       id="path44"
       inkscape:connector-curvature="0"
       style="fill-rule:evenodd;stroke:#000000;stroke-width:1;stroke-linecap:butt;stroke-linejoin:round" />
    <path
       d="m 287.54657,189.76553 4.06869,-2.60159 -4.78906,-0.62238 z"
       id="path46"
       inkscape:connector-curvature="0"
       style="fill:#000000;fill-rule:evenodd;stroke:#000000;stroke-width:1;stroke-linecap:butt" />
    <path
       d="M 291.7533,467.06036 208.57218,428.66665"
       id="path48"
       inkscape:connector-curvature="0"
       style="fill:#000000;fill-opacity:0;fill-rule:evenodd" />
    <path
       d="M 291.7533,467.06036 214.01987,431.18115"
       id="path50"
       inkscape:connector-curvature="0"
       style="fill-rule:evenodd;stroke:#000000;stroke-width:1;stroke-linecap:butt;stroke-linejoin:round" />
    <path
       d="m 214.71208,429.68146 -4.81258,-0.40213 3.42817,3.40152 z"
       id="path52"
       inkscape:connector-curvature="0"
       style="fill:#000000;fill-rule:evenodd;stroke:#000000;stroke-width:1;stroke-linecap:butt" />
    <path
       d="m 290.47507,179.14699 h 99.81104 v 291.74805 h -99.81104 z"
       id="path54"
       inkscape:connector-curvature="0"
       style="fill:#eeeeee;fill-rule:evenodd" />
    <path
       d="m 290.47507,179.14699 h 99.81104 v 291.74805 h -99.81104 z"
       id="path56"
       inkscape:connector-curvature="0"
       style="fill-rule:evenodd;stroke:#000000;stroke-width:1;stroke-linecap:butt;stroke-linejoin:round" />
    <path
       d="m 680.75854,227.77165 h 67.81103 v 12.7874 h -67.81103 z"
       id="path58"
       inkscape:connector-curvature="0"
       style="fill:#eeeeee;fill-rule:evenodd" />
    <path
       d="m 680.75854,227.77165 h 67.81103 v 12.7874 h -67.81103 z"
       id="path60"
       inkscape:connector-curvature="0"
       style="fill-rule:evenodd;stroke:#000000;stroke-width:1;stroke-linecap:butt;stroke-linejoin:round" />
    <path
       d="m 680.75854,250.16798 h 67.81103 v 12.7874 h -67.81103 z"
       id="path62"
       inkscape:connector-curvature="0"
       style="fill:#eeeeee;fill-rule:evenodd" />
    <path
       d="m 680.75854,250.16798 h 67.81103 v 12.7874 h -67.81103 z"
       id="path64"
       inkscape:connector-curvature="0"
       style="fill-rule:evenodd;stroke:#000000;stroke-width:1;stroke-linecap:butt;stroke-linejoin:round" />
    <path
       d="m 680.75854,272.5643 h 67.81103 v 12.78742 h -67.81103 z"
       id="path66"
       inkscape:connector-curvature="0"
       style="fill:#eeeeee;fill-rule:evenodd" />
    <path
       d="m 680.75854,272.5643 h 67.81103 v 12.78742 h -67.81103 z"
       id="path68"
       inkscape:connector-curvature="0"
       style="fill-rule:evenodd;stroke:#000000;stroke-width:1;stroke-linecap:butt;stroke-linejoin:round" />
    <path
       d="m 680.75854,294.96063 h 67.81103 v 12.78738 h -67.81103 z"
       id="path70"
       inkscape:connector-curvature="0"
       style="fill:#eeeeee;fill-rule:evenodd" />
    <path
       d="m 680.75854,294.96063 h 67.81103 v 12.78738 h -67.81103 z"
       id="path72"
       inkscape:connector-curvature="0"
       style="fill-rule:evenodd;stroke:#000000;stroke-width:1;stroke-linecap:butt;stroke-linejoin:round" />
    <path
       d="m 680.75854,317.35696 h 67.81103 v 12.78738 h -67.81103 z"
       id="path74"
       inkscape:connector-curvature="0"
       style="fill:#eeeeee;fill-rule:evenodd" />
    <path
       d="m 680.75854,317.35696 h 67.81103 v 12.78738 h -67.81103 z"
       id="path76"
       inkscape:connector-curvature="0"
       style="fill-rule:evenodd;stroke:#000000;stroke-width:1;stroke-linecap:butt;stroke-linejoin:round" />
    <path
       d="m 680.75854,339.7533 h 67.81103 v 12.78738 h -67.81103 z"
       id="path78"
       inkscape:connector-curvature="0"
       style="fill:#eeeeee;fill-rule:evenodd" />
    <path
       d="m 680.75854,339.7533 h 67.81103 v 12.78738 h -67.81103 z"
       id="path80"
       inkscape:connector-curvature="0"
       style="fill-rule:evenodd;stroke:#000000;stroke-width:1;stroke-linecap:butt;stroke-linejoin:round" />
    <path
       d="m 680.75854,362.1496 h 67.81103 v 12.78742 h -67.81103 z"
       id="path82"
       inkscape:connector-curvature="0"
       style="fill:#eeeeee;fill-rule:evenodd" />
    <path
       d="m 680.75854,362.1496 h 67.81103 v 12.78742 h -67.81103 z"
       id="path84"
       inkscape:connector-curvature="0"
       style="fill-rule:evenodd;stroke:#000000;stroke-width:1;stroke-linecap:butt;stroke-linejoin:round" />
    <path
       d="m 680.75854,384.54593 h 67.81103 v 12.78741 h -67.81103 z"
       id="path86"
       inkscape:connector-curvature="0"
       style="fill:#eeeeee;fill-rule:evenodd" />
    <path
       d="m 680.75854,384.54593 h 67.81103 v 12.78741 h -67.81103 z"
       id="path88"
       inkscape:connector-curvature="0"
       style="fill-rule:evenodd;stroke:#000000;stroke-width:1;stroke-linecap:butt;stroke-linejoin:round" />
    <path
       d="m 559.1942,307.74802 h 67.81104 v 12.78741 H 559.1942 Z"
       id="path90"
       inkscape:connector-curvature="0"
       style="fill:#eeeeee;fill-rule:evenodd" />
    <path
       d="m 559.1942,307.74802 h 67.81104 v 12.78741 H 559.1942 Z"
       id="path92"
       inkscape:connector-curvature="0"
       style="fill-rule:evenodd;stroke:#000000;stroke-width:1;stroke-linecap:butt;stroke-linejoin:round" />
    <path
       d="m 642.35956,235.46457 -49.25983,72.28345"
       id="path94"
       inkscape:connector-curvature="0"
       style="fill:#000000;fill-opacity:0;fill-rule:evenodd" />
    <path
       d="m 642.35956,235.46457 -45.88092,67.32532"
       id="path96"
       inkscape:connector-curvature="0"
       style="fill-rule:evenodd;stroke:#000000;stroke-width:1;stroke-linecap:butt;stroke-linejoin:round" />
    <path
       d="m 595.1137,301.8597 -1.19073,4.68027 3.92059,-2.81992 z"
       id="path98"
       inkscape:connector-curvature="0"
       style="fill:#000000;fill-rule:evenodd;stroke:#000000;stroke-width:1;stroke-linecap:butt" />
    <path
       d="m 627.00525,314.14172 53.76379,-35.18109"
       id="path100"
       inkscape:connector-curvature="0"
       style="fill:#000000;fill-opacity:0;fill-rule:evenodd" />
    <path
       d="m 627.00525,314.14172 48.74316,-31.89578"
       id="path102"
       inkscape:connector-curvature="0"
       style="fill-rule:evenodd;stroke:#000000;stroke-width:1;stroke-linecap:butt;stroke-linejoin:round" />
    <path
       d="m 676.65283,283.62808 2.89294,-3.86697 -4.70178,1.10272 z"
       id="path104"
       inkscape:connector-curvature="0"
       style="fill:#000000;fill-rule:evenodd;stroke:#000000;stroke-width:1;stroke-linecap:butt" />
    <path
       d="m 748.5696,278.958 53.76373,129.22833"
       id="path106"
       inkscape:connector-curvature="0"
       style="fill:#000000;fill-opacity:0;fill-rule:evenodd" />
    <path
       d="m 748.5696,278.958 51.45905,123.68866"
       id="path108"
       inkscape:connector-curvature="0"
       style="fill-rule:evenodd;stroke:#000000;stroke-width:1;stroke-linecap:butt;stroke-linejoin:round" />
    <path
       d="m 798.5036,403.28113 3.26819,3.55548 -0.21814,-4.82443 z"
       id="path110"
       inkscape:connector-curvature="0"
       style="fill:#000000;fill-rule:evenodd;stroke:#000000;stroke-width:1;stroke-linecap:butt" />
    <path
       d="m 803.6011,400.5223 h 99.81097 v 7.65353 H 803.6011 Z"
       id="path112"
       inkscape:connector-curvature="0"
       style="fill:#eeeeee;fill-rule:evenodd" />
    <path
       d="m 803.6011,400.5223 h 99.81097 v 7.65353 H 803.6011 Z"
       id="path114"
       inkscape:connector-curvature="0"
       style="fill-rule:evenodd;stroke:#000000;stroke-width:1;stroke-linecap:butt;stroke-linejoin:round" />
    <path
       d="M 340.38058,179.14699 V 470.89504"
       id="path116"
       inkscape:connector-curvature="0"
       style="fill:#000000;fill-opacity:0;fill-rule:evenodd" />
    <path
       d="M 340.38058,179.14699 V 464.89504"
       id="path118"
       inkscape:connector-curvature="0"
       style="fill-rule:evenodd;stroke:#000000;stroke-width:1;stroke-linecap:butt;stroke-linejoin:round;stroke-dasharray:4, 3" />
    <path
       d="m 338.72885,464.89502 1.65173,4.53809 1.65174,-4.53809 z"
       id="path120"
       inkscape:connector-curvature="0"
       style="fill:#000000;fill-rule:evenodd;stroke:#000000;stroke-width:1;stroke-linecap:butt" />
    <path
       d="M 803.6011,404.3491 685.8688,428.66404"
       id="path122"
       inkscape:connector-curvature="0"
       style="fill:#000000;fill-opacity:0;fill-rule:evenodd" />
    <path
       d="M 803.6011,404.3491 691.74478,427.45051"
       id="path124"
       inkscape:connector-curvature="0"
       style="fill-rule:evenodd;stroke:#000000;stroke-width:1;stroke-linecap:butt;stroke-linejoin:round" />
    <path
       d="m 691.4107,425.8329 -4.11023,2.53546 4.77838,0.69974 z"
       id="path126"
       inkscape:connector-curvature="0"
       style="fill:#000000;fill-rule:evenodd;stroke:#000000;stroke-width:1;stroke-linecap:butt" />
  </g>
</svg>
